<svg height="30" width="50" viewBox="0 0 50 30" fill="none"
    xmlns="http://www.w3.org/2000/svg">
    <path id="Vector_6" d="M9.31588 19.0861L2.47741 25.7546C2.23112 25.9948 2.23112 26.3864 2.47741 26.6266L5.74206 29.8277C5.98311 30.0679 6.37612 30.0626 6.61193 29.8172L26.8601 8.91383C27.2374 8.5274 26.9596 7.87988 26.4199 7.87988H10.563C10.4006 7.87988 10.2486 7.94255 10.1333 8.05743L1.05207 17.0026C0.664299 17.3838 0.93679 18.047 1.48177 18.047L8.88618 18.0365C9.4364 18.0365 9.70889 18.7049 9.31588 19.0861Z" fill="#0000FF"/>
    <path id="Vector_7" d="M40.2121 10.9138L47.0505 4.25066C47.2968 4.01045 47.2968 3.6188 47.0505 3.37859L43.7859 0.177551C43.5449 -0.0626582 43.1518 -0.0574363 42.916 0.187995L22.6679 21.0862C22.2906 21.4726 22.5683 22.1201 23.1081 22.1201H38.9649C39.1274 22.1201 39.2793 22.0574 39.3946 21.9426L48.4759 12.9974C48.8637 12.6162 48.5912 11.953 48.0462 11.953L40.6418 11.9635C40.0916 11.9635 39.8191 11.3003 40.2121 10.9138Z" fill="#0000FF"/>
</svg>