<svg width="156" height="30" viewBox="0 0 156 30" fill="none" xmlns="http://www.w3.org/2000/svg">
<g id="logo-zupah" clip-path="url(#clip0_609_11336)">
<g id="Group">
<g id="Group_2">
<path id="Vector" d="M56.6663 17.9373L65.255 11.248V11.1906H57.379V7.90079H71.9677V11.6971L63.007 18.7833V18.8407H72.6752V22.1306H56.6611V17.9373H56.6663Z" fill="black"/>
<path id="Vector_2" d="M93.4368 19.2115C93.4368 20.1201 93.463 21.1645 93.5521 22.1306H88.2595C88.2019 21.2794 88.1442 20.4282 88.1442 19.5822H88.0866C86.6665 21.483 84.5337 22.6736 82.0289 22.6736C76.8254 22.6736 74.8603 19.7285 74.8603 16.0157V7.90079H80.3206V15.1854C80.3206 17.4517 81.3163 19.0392 83.7896 19.0392C86.0377 19.0392 87.9713 17.3107 87.9713 14.1619V7.90079H93.4316V19.2115H93.4368Z" fill="black"/>
<path id="Vector_3" d="M96.3399 10.2559C96.3399 9.37858 96.3137 8.6684 96.2246 7.906H101.517C101.601 8.69973 101.633 9.46213 101.633 10.2559C102.885 8.78328 104.478 7.36292 108.031 7.36292C112.553 7.36292 115.964 10.2245 115.964 15.1018C115.964 19.8068 112.663 22.6684 107.889 22.6684C104.735 22.6684 102.911 21.3942 101.805 20.2611V27.5718H96.3452V10.2559H96.3399ZM106.034 10.6527C103.561 10.6527 101.795 12.3812 101.795 14.9034C101.795 17.6501 103.556 19.3838 106.034 19.3838C108.45 19.3838 110.158 17.5979 110.158 15.1018C110.158 12.8042 108.854 10.6527 106.034 10.6527Z" fill="black"/>
<path id="Vector_4" d="M117.411 12.0992C117.694 8.38644 121.875 7.36816 125.633 7.36816C131.208 7.36816 134.394 8.69976 134.394 13.5196V18.9556C134.394 20.0052 134.42 21.081 134.51 22.1306H129.222C129.165 21.6501 129.107 20.6005 129.107 19.8329H129.049C127.739 21.9844 125.297 22.6684 122.876 22.6684C118.81 22.6684 116.42 21.0235 116.42 18.047C116.42 14.6736 119.606 13.1436 124.951 13.1436H128.934C128.934 10.8773 127.881 10.3081 125.722 10.3081C123.704 10.3081 123.075 11.1018 123.049 12.094H117.411V12.0992ZM126.654 15.9217C122.986 15.9217 122.216 16.8877 122.216 18.0731C122.216 18.9504 123.039 19.5457 124.574 19.5457C128.127 19.5457 128.924 17.3943 128.924 15.9165H126.654V15.9217Z" fill="black"/>
<path id="Vector_5" d="M137.297 1.6658H142.758V10.3394C144.518 8.27155 146.143 7.36293 148.789 7.36293C153.909 7.36293 155.869 10.3081 155.869 14.0209V22.1253H150.408V14.846C150.408 12.5796 149.413 10.9922 146.939 10.9922C144.691 10.9922 142.758 12.7206 142.758 15.8695V22.1306H137.297V1.6658Z" fill="black"/>
</g>
<g id="Group_3">
<path id="Vector_6" d="M9.31588 19.0861L2.47741 25.7546C2.23112 25.9948 2.23112 26.3864 2.47741 26.6266L5.74206 29.8277C5.98311 30.0679 6.37612 30.0626 6.61193 29.8172L26.8601 8.91383C27.2374 8.5274 26.9596 7.87988 26.4199 7.87988H10.563C10.4006 7.87988 10.2486 7.94255 10.1333 8.05743L1.05207 17.0026C0.664299 17.3838 0.93679 18.047 1.48177 18.047L8.88618 18.0365C9.4364 18.0365 9.70889 18.7049 9.31588 19.0861Z" fill="#0000FF"/>
<path id="Vector_7" d="M40.2121 10.9138L47.0505 4.25066C47.2968 4.01045 47.2968 3.6188 47.0505 3.37859L43.7859 0.177551C43.5449 -0.0626582 43.1518 -0.0574363 42.916 0.187995L22.6679 21.0862C22.2906 21.4726 22.5683 22.1201 23.1081 22.1201H38.9649C39.1274 22.1201 39.2793 22.0574 39.3946 21.9426L48.4759 12.9974C48.8637 12.6162 48.5912 11.953 48.0462 11.953L40.6418 11.9635C40.0916 11.9635 39.8191 11.3003 40.2121 10.9138Z" fill="#0000FF"/>
</g>
</g>
</g>
<defs>
<clipPath id="clip0_609_11336">
<rect width="155" height="30" fill="white" transform="translate(0.868652)"/>
</clipPath>
</defs>
</svg>
